<svg width="143" height="59" viewBox="0 0 143 59" fill="none" xmlns="http://www.w3.org/2000/svg">
<g clip-path="url(#clip0_0_346)">
<path d="M0 7.89795V23.611L9.39604 16.3874L0 7.89795Z" fill="#131118"/>
<path d="M0 50.1383L9.39604 41.6508L0 34.4326V50.1383Z" fill="#131118"/>
<path d="M17.6191 26.8654L41.2598 7.89746H27.4806L0 29.0226L17.6191 26.8654Z" fill="#131118"/>
<path d="M0 29.0225L27.4806 50.1394H41.2598L17.6191 31.1678L0 29.0225Z" fill="#131118"/>
<path d="M48.6411 9.71959H53.2872V47.9816H48.6411V9.71959ZM68.3187 9.71959H74.058L57.496 27.6481L74.8779 47.9816H69.1386L51.8661 27.7574L68.3187 9.71959Z" fill="#131118"/>
<path d="M83.647 22.838V47.9816H79.2742V22.838H83.647ZM91.2447 27.6481C90.6617 27.2108 90.1333 26.901 89.6596 26.7188C89.1858 26.5002 88.5846 26.3909 87.8558 26.3909C86.7626 26.3909 85.9062 26.6642 85.2868 27.2108C84.6673 27.7574 84.23 28.5044 83.9749 29.4518C83.7563 30.3993 83.647 31.4742 83.647 32.6768H81.6792C81.6792 30.6726 82.0254 28.9052 82.7178 27.3748C83.4465 25.8078 84.3758 24.5689 85.5054 23.6579C86.635 22.7469 87.7829 22.2914 88.949 22.2914C89.86 22.2914 90.6981 22.4189 91.4633 22.674C92.265 22.8926 92.9938 23.3481 93.6497 24.0405L91.2447 27.6481Z" fill="#131118"/>
<path d="M98.0101 12.4526C98.0101 11.6145 98.3017 10.9039 98.8847 10.3208C99.5042 9.73781 100.215 9.44629 101.016 9.44629C101.855 9.44629 102.565 9.73781 103.148 10.3208C103.731 10.9039 104.023 11.6145 104.023 12.4526C104.023 13.2543 103.731 13.9648 103.148 14.5843C102.565 15.1674 101.855 15.4589 101.016 15.4589C100.215 15.4589 99.5042 15.1674 98.8847 14.5843C98.3017 13.9648 98.0101 13.2543 98.0101 12.4526ZM98.83 22.838H103.203V47.9816H98.83V22.838Z" fill="#131118"/>
<path d="M113.247 40.2745C113.758 41.0397 114.341 41.7503 114.997 42.4062C115.652 43.0622 116.4 43.5905 117.238 43.9914C118.112 44.3558 119.06 44.538 120.08 44.538C121.319 44.538 122.285 44.2647 122.977 43.7181C123.706 43.135 124.07 42.3516 124.07 41.3677C124.07 40.4931 123.779 39.7643 123.196 39.1813C122.649 38.5618 121.938 38.0517 121.064 37.6508C120.189 37.2135 119.26 36.8127 118.276 36.4483C117.183 36.011 116.072 35.5009 114.942 34.9178C113.849 34.2983 112.919 33.5149 112.154 32.5674C111.425 31.5836 111.061 30.3628 111.061 28.9052C111.061 27.4112 111.444 26.1722 112.209 25.1884C113.011 24.2045 114.031 23.4757 115.27 23.002C116.545 22.5282 117.857 22.2914 119.205 22.2914C120.554 22.2914 121.811 22.51 122.977 22.9473C124.179 23.3846 125.236 23.9676 126.147 24.6964C127.058 25.4252 127.769 26.2633 128.279 27.2108L124.781 29.4518C124.088 28.5044 123.214 27.7209 122.157 27.1014C121.137 26.482 119.971 26.1722 118.659 26.1722C117.748 26.1722 116.964 26.3727 116.308 26.7735C115.652 27.1743 115.325 27.7938 115.325 28.6319C115.325 29.2878 115.58 29.8709 116.09 30.381C116.6 30.8912 117.256 31.3467 118.058 31.7475C118.859 32.1484 119.697 32.531 120.572 32.8954C122.029 33.4784 123.36 34.1161 124.562 34.8085C125.765 35.4644 126.712 36.2661 127.404 37.2135C128.133 38.161 128.498 39.3817 128.498 40.8758C128.498 43.0622 127.696 44.8842 126.093 46.3418C124.526 47.7994 122.449 48.5282 119.861 48.5282C118.185 48.5282 116.673 48.2366 115.325 47.6536C113.976 47.0341 112.828 46.2507 111.881 45.3032C110.97 44.3558 110.278 43.3901 109.804 42.4062L113.247 40.2745Z" fill="#131118"/>
<path d="M130.428 22.838H143V26.9375H130.428V22.838ZM134.528 14.0924H138.9V47.9816H134.528V14.0924Z" fill="#131118"/>
</g>
<defs>
<clipPath id="clip0_0_346">
<rect width="143" height="58.1026" fill="white"/>
</clipPath>
</defs>
</svg>
